<svg xmlns="http://www.w3.org/2000/svg" viewBox="0 0 72 72"><path fill="#e0cba8" d="m49.419 60.178-27.01-.207-5.824-41.952h38.737zm-34.343-48.11v5.95H50.82l.644-5.95z"/><path fill="#e0cba8" d="m21.91 54.69.5 5.281h21.517l.592-5.282z"/><path fill="#c9b48f" d="M42.097 60.178h7.322l.515-5.73h-7.238zm14.432-47.89h-7.59l-.628 5.613h8.218z"/><g fill="none" stroke="#3d3833"><path stroke-linecap="round" stroke-linejoin="round" stroke-width="2" d="m21.38 50.393-3.607-28.381m36.49-.029-3.757 28.395m-9.93-28.289 8.173 10.02M30.417 22.13l17.152 20.642M22.352 24.253l21.864 26.172M23.902 36.996 35.928 50.63m-10.611-1.234 1.363 1.357m-3.452-19.519 8.585-9.131M24.61 41.882 42.853 22.13m-15.968 28.5 22.497-23.915M36.574 50.63l11.543-11.946m-3.901 12.069 2.127-1.793M14.905 12.028H56.95v5.946H14.905z"/><path stroke-miterlimit="10" d="M42.853 54.404h7.271"/><path stroke-linecap="round" stroke-linejoin="round" stroke-width="2" d="m50.125 54.404-.71 5.562H22.43l-.681-5.562z"/></g></svg>