<svg xmlns="http://www.w3.org/2000/svg" viewBox="0 0 72 72"><path fill="#a6785a" stroke="#a6785a" stroke-miterlimit="10" stroke-width="2.086" d="M27.421 52.141c-1.13 3.055-2.67 4.594-5.685 6.196s-11.225-.09-9.504-1.81c2.308-2.308 3.66-3.16 3.203-6.03-.583-3.661 4.208-6.134 4.208-6.134s2.094-1.142 4.193-.854c2.282.312 4.95 4.95 4.95 4.95z"/><path fill="#e0cba8" d="M45.857 36.851c-7.05 6.516-12.477 10.431-15.87 12.607l-7.64-7.675c2.18-3.395 6.092-8.814 12.593-15.848 4.77-5.16 9.764-9.914 13.802-12.448 2.944-1.848 6.597-1.572 8.866.697 2.269 2.268 2.545 5.922.697 8.866-2.535 4.037-7.289 9.032-12.449 13.801"/><path fill="#c9b48f" d="m26.81 35.51 9.236 9.235-5.834 4.155-7.274-7.335z"/><path fill="none" stroke="#3d3833" stroke-linecap="round" stroke-linejoin="round" stroke-miterlimit="10" stroke-width="2" d="M45.857 36.851c-7.05 6.516-12.477 10.431-15.87 12.607l-7.64-7.675c2.18-3.395 6.092-8.814 12.593-15.848 4.77-5.16 9.764-9.914 13.802-12.448 2.944-1.848 6.597-1.572 8.866.697h0c2.269 2.268 2.545 5.922.697 8.866-2.535 4.037-7.289 9.032-12.449 13.801m-26.213 7.512s-4.79 2.473-4.209 6.133c.458 2.871-.894 3.723-3.202 6.031-1.72 1.72 6.489 3.411 9.504 1.81s4.555-3.14 5.685-6.196m.009-16.884 9.139 9.139"/></svg>