<svg xmlns="http://www.w3.org/2000/svg" viewBox="0 0 72 72"><g fill="#e0cba8"><path d="m50.258 55.036 2.884 4.828m-31.4-4.828-2.884 4.828m27.328-45.072c2.253-4.648 4.265-4.084 6.167-4.317 1.287-.157 6.461 3.164 6.461 6.58s-2.243 4.739-3.56 5.487m-29.44-7.75c-2.253-4.648-4.265-4.084-6.167-4.317-1.287-.157-6.461 3.164-6.461 6.58s2.243 4.739 3.56 5.487"/><circle cx="36" cy="36.294" r="23"/><path d="M36.026 18.989v17m-.052-.054-6 10.392"/></g><g fill="none" stroke="#3d3833" stroke-linecap="round" stroke-linejoin="round" stroke-miterlimit="10"><path stroke-width="2" d="m50.258 55.036 2.884 4.828m-31.4-4.828-2.884 4.828M48.85 12.576a5.508 5.508 0 0 1 8.246 7.147M23.15 12.576a5.507 5.507 0 0 0-8.246 7.147"/><circle cx="36" cy="36.294" r="23" stroke-width="2"/><path stroke-width="2" d="M36.026 18.989v17"/><path stroke-width="2.079" d="m35.974 35.935-6 10.392"/></g></svg>