<svg xmlns="http://www.w3.org/2000/svg" viewBox="0 0 72 72"><path fill="#a6785a" d="m37.5 11.5-.1 31.1 1.2 3.6v15.7h-6V46.2l1.2-3.6V11.5z"/><path fill="#e0cba8" d="M58.6 23.3c-2-4.7-11.3-8.2-22.6-8.2-11.4 0-20.8 3.6-22.7 8.3l8-1.5a80.7 80.7 0 0 1 29.4-.1Z"/><g fill="none" stroke="#3d3833" stroke-linecap="round" stroke-linejoin="round" stroke-width="2"><path d="m37.5 20.4-.1 21.9 1.2 3.7v15.7h-6V46l1.2-3.7V20.4zm0-8.7-.1 3.2h-3.6v-3.2z"/><path d="M58.6 23.1c-2-4.7-11.3-8.2-22.6-8.2-11.4 0-20.8 3.6-22.7 8.3l8-1.5a80.7 80.7 0 0 1 29.4-.1Z"/></g></svg>