<svg xmlns="http://www.w3.org/2000/svg" viewBox="0 0 72 72"><path fill="#3d3833" d="m52.035 12-12.663 5.593s-.131.929.13 1.19 11.237 11.13 11.237 11.13l1.823-.567L57.05 17.35 53.09 12z"/><path fill="#a6785a" d="m11 51.205 28.631-31.058 9.625 9.22-30.249 28.874z"/><path fill="none" stroke="#3d3833" stroke-linecap="round" stroke-width="2" d="m39.874 20.147-27.885 29.67a1.9 1.9 0 0 0 .06 2.666l4.98 4.84a1.903 1.903 0 0 0 2.635.017l26.519-25.142"/><circle cx="39.372" cy="30.079" r="1.533"/><circle cx="21.313" cy="48.032" r="1.533"/><circle cx="33.387" cy="36.065" r="1.533"/><circle cx="27.222" cy="41.954" r="1.533"/><path fill="none" stroke="#3d3833" stroke-width="2" d="m40.555 17.011 10.923-4.677a1.75 1.75 0 0 1 2.006.454l3.13 3.563c.448.51.561 1.233.29 1.856l-4.521 10.38a1.752 1.752 0 0 1-2.827.557l-9.532-9.266a1.752 1.752 0 0 1 .531-2.867Z"/><path fill="none" stroke="#3d3833" stroke-linecap="round" stroke-width="2" d="m45.831 19.49 4.204 4.088"/></svg>