<svg xmlns="http://www.w3.org/2000/svg" viewBox="0 0 72 72"><path fill="#cbb287" d="m52.478 51.5-15.74 1.94c-.038.002-.35.002-.39 0l-15.76-1.314c-.574-.033-1.021-.48-1.049-1.117l-.927-17.76c-.03-.709.48-1.302 1.12-1.302h33.234c.63 0 1.447.593 1.432 1.291l-.86 17.052c-.014.648-.476 1.175-1.06 1.21"/><path fill="#3d3833" d="M55.355 32.376 56.5 7.083h-40l1.145 25.293zM54.5 51.262s-11.29 1.77-17.5 1.77-18.5-1.77-18.5-1.77c-7.313-1.159-14-2.076-14-.04 0 3.56 14.327 6.447 32 6.447s32-2.886 32-6.447c0-2.036-6.687-1.119-14 .04"/><path fill="none" stroke="#3d3833" stroke-linecap="round" stroke-linejoin="round" stroke-width="2" d="m55.355 32.376-.673 14.876L56.5 7.083h-40l1.818 40.169-.673-14.876zM54.5 51.262s-11.29 1.77-17.5 1.77-18.5-1.77-18.5-1.77c-7.313-1.159-14-2.076-14-.04 0 3.56 14.327 6.447 32 6.447s32-2.886 32-6.447c0-2.036-6.687-1.119-14 .04"/></svg>