<svg xmlns="http://www.w3.org/2000/svg" viewBox="0 0 72 72"><path fill="#c9b48f" d="M43.224 23.599 37.7 22.78l-21.3-3.547a8.02 8.02 0 0 0-6.97 2.234L5.85 25.04a1 1 0 0 0 .408 1.661l20.93 6.568 3.811 1.156m5.152 3.499 2.394 6.663 6.575 20.954a1 1 0 0 0 1.661.408l3.578-3.578a8.01 8.01 0 0 0 2.235-6.971l-3.549-21.311-.893-5.915z"/><path fill="#e0cba8" d="m9.341 49.6 8.62 3.716a1 1 0 0 1 .53.544l3.548 8.8L26 58.65l-.69-5.951a1 1 0 0 1 .285-.822l28.8-28.794a4.4 4.4 0 0 0 .782-4.352l-.157-.585a2.04 2.04 0 0 0-1.42-1.438l-.579-.159a4.22 4.22 0 0 0-4.265.813L19.9 46.174a1 1 0 0 1-.838.284l-5.846-.776z"/><g fill="none" stroke="#3d3833" stroke-linejoin="round" stroke-width="2"><path stroke-linecap="round" d="m48.372 36.082 3.243 19.472a7 7 0 0 1-1.955 6.1l-3.578 3.578-6.534-20.824M27.223 32.2 6.564 25.718l3.578-3.578a7 7 0 0 1 6.1-1.955l19.472 3.243"/><path d="m56.142 18.469-.158-.585a3.05 3.05 0 0 0-2.119-2.142l-.579-.159a5.14 5.14 0 0 0-5.24 1.074L19.191 45.465l-6.339-.842L7.6 49.935l9.964 4.3 4.117 10.206 5.371-5.428-.747-6.428 28.8-28.795a5.31 5.31 0 0 0 1.037-5.321z"/></g></svg>