<svg xmlns="http://www.w3.org/2000/svg" viewBox="0 0 72 72"><path fill="#e0cba8" d="m17.124 30.476-2.276 1.673-2.08-1.673S10.746 36.5 13 39l-2.707 3.532-4.202 2.064v2.07L8 50l6.088.934h5.916l3.115-1.127-.955 4.943 1.106 1.38 2.639-1.967 5.665-9.567 7.097.701 10-1.185 4.849-1.187 1.75 4.662 1.457 8.086L58.147 57l1.389-.768 3.589-16.482s-1.253-9.254-6.62-13.001c-6.593-5.618-14.539-7.225-24.04-4.222q-8.585 2.971-15.34 7.948"/><path fill="#cbb287" d="m48.008 44.596-.504 5.58-.797 4.35 1.382 1.147 4.855-5.538L55.084 46l-1.871-3.625zM35 44.935V52.5l-.912 3.368-3.28-.493-.72-3.937-.375-4.688 1.095-1.815z"/><g fill="none" stroke="#3d3833" stroke-linecap="round" stroke-linejoin="round" stroke-miterlimit="10" stroke-width="2"><path d="M18.267 40.366S19 37 18 35c-.825-1.65-5-4-5-4-.9 2.25-.662 6.007-.28 7.046L13 39l-.522.89a10.9 10.9 0 0 1-4.516 4.22l-1.281.64c-.527.264-.74.905-.477 1.432L8 50s6.75 1.688 11.445.332M15.633 32.13c4.98-7.1 36.828-22.24 46.05 3.138a15.6 15.6 0 0 1 .578 8.573l-2.52 11.88A1.614 1.614 0 0 1 58.16 57h-.013c-1.066 0-1.352-.849-1.553-1.895C56 52 56.128 47.22 52.304 40.62"/><path d="M30.039 34.735s3.583 5.63 1.024 9.725c-2.01 3.216-4.651 8.64-5.692 10.822-.278.581-.865.95-1.509.95h-.025a1.67 1.67 0 0 1-1.583-2.207c.758-2.242 1.568-5.964.62-10.077m8.7 1.024s15.867 1.536 20.986-2.047M48 45s0 4-1.2 8.417c-.303 1.118.13 2.256 1.289 2.256h0c.584 0 1.116-.34 1.36-.87L52 50m-20.985 1.579-.198 2.184c-.137 1.504 1.43 2.574 2.781 1.898l.018-.009a1.93 1.93 0 0 0 1.06-1.586L35 46m26.284-18.071s6.142-1.535 2.56 3.071"/></g></svg>