<svg xmlns="http://www.w3.org/2000/svg" viewBox="0 0 72 72"><path fill="#a6785a" d="M46.288 34.393c-.82-1.4-3.576-2.559-3.576-2.559l-1.034-4.197-2.228-13.049-9.105-.605-2.184 16.63c-.064.354-1.446 1.777-1.786 1.896-2.821.99-3.086 3.521-3.57 4.55l24.166.032c-.03-.143.022-1.494-.683-2.698"/><path fill="#a6785a" d="m31.008 8.6-1.424 5.988 10.698-.46-.455-5.339z"/><path fill="#a6785a" d="M39.827 8.79h-2.979l.292 5.798h3.687z"/><path fill="#e0cba8" d="M33.051 40.235s-.024 2.68-.024 3.233l.316 12.495 2.524 5.843 1.67-4.259.778-17.295z"/><path fill="#c9b48f" d="m35.865 61.526 2.108-5.777.336-14.052.011-1.46-2.66.009z"/><path fill="#a6785a" d="M38.012 31.834s1.439 1.159 2.26 2.56c.705 1.204 1.238 2.555 1.268 2.698l5.25-.652c-.484-1.026-.214-2.67-3.039-3.66-.34-.12-.66-.591-.724-.946 0 0-2.712-14.038-2.55-13.588l-.695-4.118-2.642.46.85 15.39z"/><path fill="none" stroke="#3d3833" stroke-linecap="round" stroke-linejoin="round" stroke-width="2" d="m33.069 41.232.006 14.783 2.861 7.858 2.318-7.882-.006-14.756m-7.929-22.659-2.378 13.26c-5.224 1.832-5.48 5.495-5.48 5.495h25.45s-.256-3.663-5.48-5.495l-2.377-13.26m.773-3.988H29.585l1-5.799h9.242z"/></svg>