<svg xmlns="http://www.w3.org/2000/svg" viewBox="0 0 72 72"><path fill="#c9b48f" d="M30.644 51.107a1 1 0 0 1 1.224.707l1.455 5.45h8.387l1.455-5.427a1 1 0 0 1 1.225-.707"/><path fill="#3d3833" d="M33.013 24.106a1 1 0 0 1-1-1V8.218a2.307 2.307 0 1 0-4.615 0v14.884a1 1 0 0 1-1 1m23.152.004a1 1 0 0 1-1-1V8.218a2.307 2.307 0 0 0-4.614 0v14.884a1 1 0 0 1-1 1"/><path fill="#e0cba8" d="M47.601 24.189H20.435v10.48c-.012 9.48 7.663 17.177 17.144 17.189 3.543.005 7-1.087 9.898-3.124.593-8.17.634-16.37.124-24.545"/><path fill="#c9b48f" d="M47.601 24.189a182 182 0 0 1-.124 24.546 17.17 17.17 0 0 0 7.339-14.066V24.19z"/><path fill="#e0cba8" d="M41.657 67.097a1 1 0 0 1-1-1v-7.083h-6.063v7.083a1 1 0 0 1-1 1"/><g fill="none" stroke="#3d3833" stroke-linecap="round" stroke-width="2"><path stroke-miterlimit="10" d="M33.013 23.093V8.21a3.307 3.307 0 0 0-3.307-3.308h0a3.307 3.307 0 0 0-3.307 3.307h0v14.883m23.151.001V8.21a3.307 3.307 0 0 0-3.307-3.308h0a3.307 3.307 0 0 0-3.307 3.307h0v14.883"/><path stroke-linejoin="round" d="M19.435 23.189v11.48c0 10.046 8.144 18.19 18.19 18.19s18.19-8.144 18.19-18.19v-11.48z"/><path stroke-linejoin="round" d="M31.011 51.81 32.665 58h9.921l1.654-6.166m-10.622 14.25V58h8.063v8.084"/></g></svg>