<svg xmlns="http://www.w3.org/2000/svg" viewBox="0 0 72 72"><g fill="#e0cba8"><path d="M7 36c0 16.017 12.983 29 29 29s29-12.983 29-29z"/><path d="M49 36c0 16.016-4 29-13 29 16.017 0 29-12.984 29-29z"/></g><path fill="none" stroke="#3d3833" stroke-linecap="round" stroke-linejoin="round" stroke-miterlimit="10" stroke-width="2" d="M7 36c0 16.017 12.983 29 29 29s29-12.983 29-29zm0-10.859 7 7M29.043 7.846a4.95 4.95 0 0 0 1.42 3.084 5 5 0 0 1 0 7.07 5 5 0 0 0 0 7.07 5 5 0 0 1 0 7.07M34.57 7.036c-.1 1.398.362 2.826 1.43 3.894A5 5 0 0 1 36 18a5 5 0 0 0 0 7.07 5 5 0 0 1 0 7.07m4.01-24.857a4.97 4.97 0 0 0 1.454 3.647 5 5 0 0 1 0 7.07 5 5 0 0 0 0 7.07 5 5 0 0 1 0 7.07"/></svg>