<svg xmlns="http://www.w3.org/2000/svg" viewBox="0 0 72 72"><path fill="#e0cba8" d="M30 31s-2 23 7 26 14-34 6-34c-6.207 0-7-1-11.71-.342-1.37.191-3.306.102-5.29 1.342-8 5 5 29 8 31"/><path fill="#cbb287" d="M42 22s1-3-2-3h-7s-2.14-.42-1 3"/><path fill="#e0cba8" d="M34 18c3.2-5.333 5.133.333 5 0"/><path fill="none" stroke="#3d3833" stroke-linecap="round" stroke-linejoin="round" stroke-miterlimit="10" stroke-width="2" d="M30 31s-2 23 7 26 14-34 6-34c-6.207 0-7-1-11.71-.342-1.37.191-3.306.102-5.29 1.342-8 5 5 29 8 31m8-33s1-3-2-3h-7s-2.14-.42-1 3m2-4c3.2-5.333 5.133.333 5 0"/></svg>