<svg xmlns="http://www.w3.org/2000/svg" viewBox="0 0 72 72"><circle cx="36" cy="36" r="21.298" fill="#e0cba8"/><path fill="#3d3833" d="M36 8.071C20.575 8.071 8.071 20.575 8.071 36S20.575 63.929 36 63.929 63.929 51.425 63.929 36 51.425 8.071 36 8.071m0 48.845c-11.551 0-20.916-9.365-20.916-20.916S24.45 15.084 36 15.084 56.916 24.45 56.916 36 47.55 56.916 36 56.916"/><path fill="#3d3833" d="M36 29.244a6.756 6.756 0 1 0 0 13.512 6.756 6.756 0 0 0 0-13.512M36 39a3 3 0 1 1 0-6 3 3 0 0 1 0 6"/><g fill="none" stroke="#3d3833" stroke-miterlimit="10" stroke-width="2"><circle cx="36" cy="36" r="27.929"/><circle cx="36" cy="36" r="21.298"/><path stroke-linecap="round" d="m21.032 50.968 10.191-10.191m10.255 15.669-3.729-13.92m18.697-1.048-13.92-3.729m8.442-16.717L40.777 31.223M30.521 15.554l3.731 13.921m-18.698 1.046 13.919 3.73"/><circle cx="36" cy="36" r="6.756"/><circle cx="36" cy="36" r="3"/></g></svg>